<svg width="1276" height="75" viewBox="0 0 1276 75" fill="none" xmlns="http://www.w3.org/2000/svg">
<path d="M574.938 42.4117C577.07 42.8408 577.025 45.9052 574.88 46.2705L566.634 47.6748C565.334 47.8962 564.618 49.3111 565.21 50.4897L569.014 58.0716C569.999 60.0335 567.511 61.8856 565.914 60.3797L560.08 54.8792C559.086 53.9416 557.461 54.282 556.927 55.54L553.769 62.9767C552.907 65.0064 549.869 64.2912 550.004 62.0901L550.508 53.8199C550.59 52.4769 549.327 51.4516 548.029 51.8078L540.177 53.9638C538.073 54.5415 536.738 51.7697 538.502 50.4849L545.386 45.4694C546.442 44.7 546.466 43.1326 545.433 42.332L538.701 37.1132C536.977 35.7764 538.394 33.0457 540.48 33.6859L548.264 36.0753C549.551 36.4701 550.844 35.483 550.802 34.1382L550.544 25.8566C550.476 23.6525 553.534 23.0282 554.335 25.0827L557.269 32.6104C557.766 33.8838 559.379 34.2725 560.401 33.365L566.396 28.0411C568.038 26.5836 570.469 28.5091 569.427 30.4408L565.398 37.9057C564.771 39.0662 565.445 40.5018 566.738 40.7619L574.938 42.4117Z" fill="#90314F"/>
<path d="M1264.38 42.4117C1266.51 42.8408 1266.46 45.9052 1264.32 46.2705L1256.07 47.6748C1254.77 47.8962 1254.06 49.3111 1254.65 50.4897L1258.45 58.0716C1259.44 60.0335 1256.95 61.8856 1255.35 60.3797L1249.52 54.8792C1248.52 53.9416 1246.9 54.282 1246.36 55.54L1243.21 62.9767C1242.34 65.0064 1239.31 64.2912 1239.44 62.0901L1239.95 53.8199C1240.03 52.4769 1238.76 51.4516 1237.47 51.8078L1229.61 53.9638C1227.51 54.5415 1226.18 51.7697 1227.94 50.4849L1234.82 45.4694C1235.88 44.7 1235.9 43.1326 1234.87 42.332L1228.14 37.1132C1226.41 35.7764 1227.83 33.0457 1229.92 33.6859L1237.7 36.0753C1238.99 36.4701 1240.28 35.483 1240.24 34.1382L1239.98 25.8566C1239.91 23.6525 1242.97 23.0282 1243.77 25.0827L1246.71 32.6104C1247.2 33.8838 1248.82 34.2725 1249.84 33.365L1255.83 28.0411C1257.48 26.5836 1259.91 28.5091 1258.86 30.4408L1254.84 37.9057C1254.21 39.0662 1254.88 40.5018 1256.18 40.7619L1264.38 42.4117Z" fill="#90314F"/>
<path d="M314.694 42.0777C316.627 43.0659 316.585 45.8424 314.624 46.7724L306.513 50.6173C305.42 51.1358 304.824 52.3367 305.074 53.5212L306.973 62.5367C307.43 64.7073 305.148 66.4265 303.188 65.3889L295.603 61.3747C294.481 60.7808 293.095 61.078 292.315 62.0796L286.961 68.9535C285.582 70.7235 282.762 70.0518 282.329 67.8506L280.593 59.0262C280.353 57.8066 279.289 56.924 278.046 56.9144L269.349 56.8475C267.163 56.8307 265.96 54.3004 267.327 52.5946L273.083 45.4101C273.831 44.4766 273.85 43.1548 273.131 42.1994L267.592 34.8462C266.276 33.1004 267.554 30.6071 269.74 30.6556L278.435 30.8483C279.678 30.8758 280.768 30.0254 281.044 28.8135L283.042 20.0449C283.541 17.8575 286.38 17.2704 287.705 19.0807L292.852 26.1114C293.601 27.1358 294.978 27.4742 296.118 26.9141L303.819 23.1281C305.809 22.1495 308.038 23.9361 307.517 26.092L305.349 35.0469C305.065 36.2233 305.624 37.4415 306.702 37.9924L314.694 42.0777Z" fill="#DD714F"/>
<path d="M1004.13 42.0777C1006.06 43.0659 1006.02 45.8424 1004.06 46.7724L995.949 50.6173C994.855 51.1358 994.26 52.3367 994.509 53.5212L996.408 62.5367C996.865 64.7073 994.584 66.4265 992.623 65.3889L985.039 61.3747C983.917 60.7808 982.53 61.078 981.75 62.0796L976.396 68.9535C975.018 70.7235 972.197 70.0518 971.764 67.8506L970.029 59.0262C969.789 57.8066 968.724 56.924 967.481 56.9144L958.784 56.8475C956.598 56.8307 955.395 54.3004 956.762 52.5946L962.518 45.4101C963.266 44.4766 963.286 43.1548 962.566 42.1994L957.027 34.8462C955.712 33.1004 956.99 30.6071 959.175 30.6556L967.87 30.8483C969.113 30.8758 970.204 30.0254 970.48 28.8135L972.478 20.0449C972.976 17.8575 975.816 17.2704 977.141 19.0807L982.287 26.1114C983.037 27.1358 984.414 27.4742 985.553 26.9141L993.254 23.1281C995.245 22.1495 997.474 23.9361 996.952 26.092L994.785 35.0469C994.5 36.2233 995.06 37.4415 996.137 37.9924L1004.13 42.0777Z" fill="#DD714F"/>
<path d="M384.166 8.40927C386.114 22.3795 393.989 50.2338 409.901 49.8896C425.813 49.5455 436.877 36.4428 440.42 29.9345C443.674 24.8656 445.899 14.8134 428.765 15.1556C411.631 15.4977 416.954 30.3946 421.757 37.8003C426.25 42.9148 438.498 55.0703 451.542 62.7763C464.586 70.4822 472.608 60.3189 474.988 54.274" stroke="#5F6CB0" stroke-width="8.30908"/>
<path d="M1067.24 25.0147C1073.81 37.4949 1090.67 61.0246 1105.52 55.3018C1120.38 49.579 1126.34 33.4995 1127.46 26.1751C1128.8 20.3027 1127.48 10.0919 1111.48 16.2277C1095.48 22.3635 1105.54 34.5704 1112.57 39.9069C1118.54 43.1934 1134.18 50.472 1149.07 53.2948C1163.95 56.1175 1168.05 43.8352 1168.24 37.3412" stroke="#5F6CB0" stroke-width="8.30908"/>
<path d="M674.174 32.9158C670.953 39.6519 668.15 45.3693 660.189 48.9167C654.091 51.634 646.993 53.4683 640.117 54.2273C634.736 54.8213 629.958 53.297 624.871 51.7216C620.229 50.2842 615.207 48.8998 611.115 46.3644C607.758 44.284 606.132 41.8958 603.824 39.1299" stroke="#EE512F" stroke-width="8.17755" stroke-linecap="square"/>
<path d="M188.927 34.7488L193.42 46.454L183.139 54.3443L172.292 47.5155L175.869 35.4049L188.927 34.7488Z" fill="#53405E"/>
<path d="M899.45 26.4979L903.944 38.2031L893.663 46.0933L882.815 39.2645L886.392 27.1539L899.45 26.4979Z" fill="#53405E"/>
<path d="M30.8791 32.5326L37.2042 49.0088L22.733 60.1151L7.4642 50.5029L12.4987 33.456L30.8791 32.5326Z" fill="#E2585D"/>
<path d="M729.485 29.7826L735.81 46.2588L721.339 57.3651L706.07 47.7529L711.104 30.706L729.485 29.7826Z" fill="#E2585D"/>
<path d="M83.5916 58.6599C90.4413 57.7099 95.9145 56.0053 101.015 51.1014C106.992 45.3556 112.578 35.4284 112.357 26.9187C112.171 19.7798 105.953 14.2459 99.1499 12.9011C92.7197 11.6299 89.6215 18.8208 88.7137 23.898C87.6695 29.7385 86.6947 38.4265 92.7159 41.8706C101.33 46.798 114.077 48.3889 123.796 47.7668C133.202 47.1647 141.254 42.7406 144.453 33.2739C146.129 28.314 144.634 22.2345 144.065 17.1577" stroke="#90314F" stroke-width="8.34732" stroke-linecap="square"/>
<path d="M773.027 58.6599C779.877 57.7099 785.35 56.0053 790.451 51.1014C796.427 45.3556 802.014 35.4284 801.792 26.9187C801.607 19.7798 795.388 14.2459 788.585 12.9011C782.155 11.6299 779.057 18.8208 778.149 23.898C777.105 29.7385 776.13 38.4265 782.151 41.8706C790.766 46.798 803.513 48.3889 813.231 47.7668C822.638 47.1647 830.69 42.7406 833.888 33.2739C835.564 28.314 834.069 22.2345 833.501 17.1577" stroke="#90314F" stroke-width="8.34732" stroke-linecap="square"/>
</svg>
