<svg width="543" height="590" viewBox="0 0 543 590" fill="none" xmlns="http://www.w3.org/2000/svg">
<path d="M246.401 438.011L253.229 456.172L237.955 468.528L221.686 458.004L226.907 439.143L246.401 438.011Z" fill="#53405E"/>
<path d="M33.6823 12.2735C32.0665 31.1284 33.6386 69.9512 52.853 74.4031C72.0675 78.8551 89.0711 65.1423 95.1711 57.7294C100.517 52.1084 106.037 39.6588 85.3543 34.8277C64.6717 29.9965 66.8476 51.1018 70.5209 62.2584C74.4705 70.3255 85.742 89.9818 99.2312 104.069C112.72 118.157 125.236 107.348 129.808 100.182" stroke="#5F6CB0" stroke-width="7.59664"/>
<path d="M152.976 456.136C142.457 462.223 133.441 467.319 120.071 464.112C109.829 461.655 99.1888 456.945 89.863 450.964C82.5641 446.283 78.0607 439.268 73.2207 431.866C68.8045 425.112 63.8612 418.042 61.1913 410.322C59.0004 403.987 59.2705 398.996 59.0519 392.78" stroke="#EE512F" stroke-width="9.04576" stroke-linecap="square"/>
<path d="M41.7545 341.67L48.5825 361.325L33.3078 374.697L17.0395 363.307L22.2598 342.895L41.7545 341.67Z" fill="#53405E"/>
<path d="M68.293 278.779C69.9658 279.695 69.9462 282.104 68.2588 282.988L55.6371 289.598C54.6999 290.089 54.1988 291.139 54.406 292.177L57.4405 307.388C57.8404 309.392 55.7023 310.936 53.924 309.928L42.4721 303.432C41.4051 302.827 40.0542 303.128 39.3469 304.128L31.3535 315.431C30.1358 317.153 27.4443 316.561 27.057 314.485L24.3249 299.848C24.114 298.718 23.128 297.897 21.9788 297.895L8.6557 297.872C6.70526 297.868 5.57851 295.654 6.72517 294.078L15.6829 281.765C16.2827 280.941 16.2918 279.825 15.7055 278.99L6.94947 266.506C5.82863 264.908 6.99122 262.716 8.94142 262.75L22.2628 262.983C23.4119 263.004 24.411 262.202 24.6403 261.076L27.6101 246.493C28.0311 244.426 30.7318 243.885 31.9214 245.63L39.7296 257.086C40.4205 258.099 41.7663 258.426 42.843 257.841L54.3987 251.567C56.1932 250.593 58.3058 252.178 57.8734 254.175L54.5919 269.324C54.3678 270.359 54.8518 271.418 55.7808 271.927L68.293 278.779Z" fill="#DD714F"/>
<path d="M70.3496 130.527C72.2138 130.926 72.1921 133.594 70.3216 133.958L52.2861 137.461C51.1712 137.677 50.5562 138.882 51.034 139.914L59.4094 157.993C60.237 159.78 57.945 161.358 56.5692 159.949L43.976 147.052C43.082 146.137 41.5413 146.456 41.0874 147.651L34.4154 165.218C33.7073 167.082 30.9303 166.497 31.0299 164.504L32.0105 144.899C32.0713 143.684 30.9045 142.777 29.7425 143.136L12.7507 148.389C10.9105 148.958 9.63166 146.57 11.127 145.356L26.1511 133.167C27.0041 132.475 27.0146 131.176 26.173 130.468L11.3496 117.991C9.87426 116.749 11.1917 114.385 13.0224 114.99L29.9261 120.569C31.082 120.951 32.2634 120.066 32.2224 118.85L31.561 99.2289C31.4937 97.2348 34.2799 96.7027 34.9575 98.5803L41.3427 116.273C41.777 117.477 43.3123 117.825 44.2211 116.927L57.0222 104.275C58.4206 102.892 60.6866 104.515 59.8301 106.285L51.1618 124.201C50.6673 125.223 51.2627 126.439 52.3738 126.677L70.3496 130.527Z" fill="#90314F"/>
<path d="M368.911 466.318C371.03 466.767 371.005 469.8 368.879 470.208L352.009 473.448C350.74 473.692 350.041 475.065 350.589 476.237L358.405 492.924C359.351 494.944 356.764 496.744 355.197 495.157L343.531 483.338C342.517 482.311 340.783 482.672 340.267 484.017L334.097 500.089C333.288 502.196 330.148 501.528 330.262 499.273L331.171 481.275C331.24 479.9 329.922 478.871 328.606 479.274L312.785 484.111C310.695 484.75 309.254 482.032 310.959 480.665L325.023 469.377C326.001 468.593 326.013 467.108 325.048 466.305L311.169 454.749C309.488 453.348 310.972 450.659 313.052 451.338L328.791 456.479C330.101 456.906 331.435 455.904 331.388 454.527L330.773 436.515C330.696 434.258 333.846 433.65 334.62 435.772L340.527 451.96C341.022 453.316 342.75 453.71 343.78 452.703L355.637 441.11C357.229 439.553 359.787 441.403 358.808 443.404L350.722 459.939C350.154 461.099 350.831 462.486 352.096 462.754L368.911 466.318Z" fill="#90314F"/>
<path d="M414.228 472.058C422.17 467.829 428.139 463.2 432.378 454.507C437.346 444.32 440.17 428.779 436.504 417.631C433.429 408.279 423.666 403.667 414.865 404.843C406.546 405.955 405.652 416.801 406.576 423.904C407.638 432.074 409.922 443.976 418.611 445.913C431.043 448.684 447.164 445.252 458.723 440.211C469.909 435.333 477.926 425.991 478.033 412.095C478.089 404.814 473.846 397.43 471.129 390.969" stroke="#90314F" stroke-width="7.90599" stroke-linecap="square"/>
<path d="M23.6888 560.866C31.631 556.637 37.5996 552.009 41.839 543.315C46.8063 533.129 49.6303 517.587 45.9649 506.44C42.8899 497.088 33.1266 492.475 24.3255 493.652C16.0063 494.763 15.1127 505.61 16.0365 512.712C17.099 520.882 19.3826 532.785 28.0721 534.722C40.5039 537.493 56.6247 534.061 68.1832 529.02C79.37 524.141 87.3864 514.8 87.4937 500.903C87.5498 493.622 83.3071 486.239 80.5902 479.777" stroke="#90314F" stroke-width="7.90599" stroke-linecap="square"/>
<path d="M429.729 546.764C431.423 547.692 431.403 550.131 429.695 551.026L416.914 557.72C415.965 558.217 415.458 559.28 415.668 560.331L418.74 575.733C419.145 577.762 416.98 579.326 415.18 578.305L403.584 571.728C402.503 571.115 401.135 571.419 400.419 572.432L392.325 583.878C391.092 585.621 388.367 585.022 387.974 582.92L385.208 568.098C384.994 566.954 383.996 566.123 382.832 566.121L369.342 566.097C367.367 566.094 366.226 563.852 367.387 562.256L376.457 549.788C377.065 548.953 377.074 547.824 376.48 546.978L367.614 534.337C366.479 532.719 367.656 530.5 369.631 530.534L383.12 530.77C384.284 530.79 385.295 529.979 385.527 528.839L388.535 514.072C388.961 511.979 391.696 511.431 392.9 513.199L400.807 524.798C401.506 525.824 402.869 526.155 403.959 525.563L415.66 519.21C417.477 518.224 419.617 519.829 419.179 521.85L415.856 537.191C415.629 538.238 416.119 539.311 417.06 539.826L429.729 546.764Z" fill="#DD714F"/>
<path d="M152.244 497.595L159.072 517.25L143.797 530.623L127.529 519.233L132.749 498.821L152.244 497.595Z" fill="#E2585D"/>
<path d="M333.006 122.67C338.215 119.896 342.13 116.861 344.91 111.159C348.168 104.478 350.02 94.2851 347.616 86.9738C345.6 80.8403 339.196 77.8153 333.424 78.5868C327.968 79.316 327.382 86.4294 327.988 91.0877C328.685 96.4462 330.182 104.253 335.881 105.523C344.035 107.34 354.608 105.089 362.188 101.783C369.525 98.5836 374.783 92.4571 374.853 83.3428C374.89 78.5676 372.108 73.7249 370.326 69.4873" stroke="#90314F" stroke-width="5.18519" stroke-linecap="square"/>
<path d="M403.11 150.017L412.195 176.169L391.871 193.962L370.225 178.807L377.171 151.647L403.11 150.017Z" fill="#E2585D"/>
<path d="M270.001 21.1214L277.252 41.994L261.031 56.195L243.755 44.0991L249.299 22.4224L270.001 21.1214Z" fill="#E2585D"/>
<path d="M498.34 285.169C500.187 286.158 500.166 288.813 498.303 289.766L475.013 301.684C473.977 302.214 473.422 303.369 473.655 304.51L479.289 332.085C479.732 334.255 477.429 335.944 475.491 334.869L453.425 322.633C452.277 321.996 450.835 322.316 450.067 323.379L434.655 344.682C433.323 346.524 430.431 345.878 430.004 343.642L424.822 316.531C424.589 315.308 423.52 314.422 422.275 314.42L397.136 314.371C395.003 314.367 393.783 311.935 395.055 310.225L411.475 288.163C412.149 287.257 412.159 286.019 411.5 285.101L395.441 262.725C394.197 260.992 395.457 258.583 397.589 258.62L422.726 259.056C423.97 259.077 425.053 258.212 425.307 256.994L430.929 229.986C431.392 227.76 434.294 227.169 435.596 229.037L450.659 250.633C451.41 251.71 452.846 252.058 454.004 251.443L476.266 239.633C478.221 238.596 480.496 240.329 480.017 242.49L473.936 269.952C473.685 271.088 474.221 272.254 475.248 272.804L498.34 285.169Z" fill="#53405E"/>
<path d="M198.181 37.29C200.028 38.2789 200.006 40.9339 198.143 41.8871L186.473 47.8592C185.438 48.3891 184.883 49.5443 185.116 50.685L187.926 64.4429C188.37 66.6132 186.066 68.3018 184.129 67.2272L173.506 61.3363C172.358 60.6995 170.916 61.0196 170.147 62.0821L162.738 72.3247C161.405 74.1666 158.514 73.5205 158.086 71.2853L155.553 58.033C155.32 56.8102 154.251 55.9243 153.006 55.9219L140.667 55.898C138.535 55.8939 137.314 53.4618 138.586 51.7524L146.867 40.626C147.541 39.7206 147.551 38.4824 146.892 37.5641L138.793 26.2801C137.549 24.5465 138.809 22.1382 140.942 22.1752L153.279 22.3887C154.523 22.4103 155.606 21.5451 155.86 20.327L158.608 7.12555C159.072 4.89891 161.973 4.30851 163.276 6.17583L170.518 16.5594C171.269 17.6365 172.705 17.9843 173.864 17.3697L184.581 11.6841C186.535 10.647 188.811 12.3797 188.332 14.5411L185.298 28.2427C185.047 29.3788 185.583 30.5445 186.609 31.0942L198.181 37.29Z" fill="#53405E"/>
<path d="M536.292 115.402C531.55 126.767 527.413 136.411 514.884 142.159C505.286 146.563 494.034 149.423 483.071 150.458C474.491 151.268 466.745 148.489 458.503 145.61C450.982 142.984 442.854 140.434 436.147 135.956C430.643 132.282 427.893 128.148 424.027 123.345" stroke="#EE512F" stroke-width="9.04576" stroke-linecap="square"/>
<path d="M194.668 478.642C193.34 494.139 194.632 526.048 210.425 529.708C226.218 533.367 240.193 522.096 245.207 516.003C249.601 511.383 254.138 501.15 237.139 497.179C220.139 493.209 221.927 510.556 224.947 519.725C228.193 526.356 237.457 542.512 248.544 554.091C259.631 565.67 269.919 556.786 273.677 550.896" stroke="#5F6CB0" stroke-width="6.24388"/>
<path d="M464.508 41.9445C466.256 42.902 466.236 45.4199 464.472 46.3436L451.279 53.253C450.3 53.766 449.776 54.8633 449.992 55.9487L453.164 71.8474C453.582 73.9423 451.347 75.5565 449.489 74.5022L437.519 67.7129C436.403 67.0803 434.991 67.3947 434.252 68.4402L425.897 80.2548C424.624 82.0547 421.811 81.4354 421.406 79.2663L418.551 63.9663C418.33 62.7851 417.3 61.9273 416.098 61.9252L402.173 61.9007C400.134 61.8972 398.956 59.5828 400.155 57.9354L409.518 45.0656C410.145 44.204 410.154 43.0383 409.541 42.1647L400.389 29.1168C399.218 27.4466 400.433 25.1552 402.471 25.1909L416.395 25.4344C417.596 25.4554 418.641 24.6177 418.88 23.4409L421.984 8.19823C422.424 6.03717 425.247 5.47218 426.491 7.29631L434.652 19.2698C435.374 20.3294 436.781 20.6709 437.906 20.0598L449.985 13.502C451.86 12.4836 454.069 14.1405 453.617 16.2271L450.187 32.0623C449.953 33.1433 450.458 34.2505 451.429 34.7823L464.508 41.9445Z" fill="#DD714F"/>
</svg>
