<svg width="1304" height="633" viewBox="0 0 1304 633" fill="none" xmlns="http://www.w3.org/2000/svg">
<path d="M596.197 145.677C605.13 141.304 611.844 136.517 616.612 127.526C622.2 116.991 625.376 100.917 621.253 89.3883C617.795 79.7165 606.813 74.9463 596.913 76.1628C587.555 77.3127 586.55 88.5299 587.589 95.8755C588.784 104.325 591.353 116.635 601.127 118.638C615.111 121.504 633.244 117.955 646.245 112.741C658.828 107.696 667.845 98.0349 667.966 83.6627C668.029 76.1326 663.257 68.4961 660.201 61.814" stroke="#90314F" stroke-width="12.0064" stroke-linecap="square"/>
<path d="M894.378 526.48C903.312 522.106 910.026 517.32 914.794 508.329C920.381 497.794 923.558 481.72 919.435 470.191C915.976 460.519 904.994 455.749 895.095 456.966C885.737 458.115 884.732 469.333 885.771 476.678C886.966 485.128 889.535 497.438 899.309 499.441C913.292 502.307 931.425 498.758 944.427 493.544C957.01 488.498 966.027 478.838 966.147 464.465C966.211 456.935 961.438 449.299 958.382 442.617" stroke="#90314F" stroke-width="12.0064" stroke-linecap="square"/>
<path d="M964.169 113.464C967.31 115.134 967.27 119.649 964.1 121.263L940.411 133.324C938.649 134.222 937.702 136.186 938.1 138.124L943.795 165.92C944.548 169.593 940.652 172.461 937.368 170.653L915.444 158.58C913.504 157.512 911.073 158.053 909.769 159.843L894.449 180.883C892.185 183.992 887.302 182.9 886.578 179.123L881.401 152.113C881.005 150.044 879.196 148.547 877.089 148.545L851.828 148.514C848.209 148.51 846.145 144.379 848.315 141.483L865.088 119.091C866.241 117.552 866.259 115.442 865.134 113.883L848.76 91.1978C846.642 88.2635 848.778 84.17 852.396 84.2296L877.655 84.6461C879.761 84.6809 881.596 83.2163 882.029 81.1545L887.683 54.2408C888.474 50.4769 893.376 49.4715 895.584 52.6203L910.53 73.9281C911.801 75.7408 914.222 76.3249 916.181 75.2914L938.315 63.6082C941.631 61.8581 945.475 64.7954 944.658 68.4543L938.471 96.145C938.04 98.0756 938.951 100.056 940.698 100.985L964.169 113.464Z" fill="#53405E"/>
<path d="M1140.73 407.327C1144.32 408.026 1144.27 413.175 1140.67 413.81L1126.83 416.253C1124.65 416.639 1123.46 419.023 1124.47 420.997L1130.94 433.694C1132.61 436.98 1128.45 440.117 1125.75 437.603L1115.9 428.423C1114.22 426.858 1111.49 427.446 1110.61 429.565L1105.38 442.09C1103.95 445.508 1098.84 444.338 1099.04 440.639L1099.81 426.741C1099.93 424.484 1097.8 422.775 1095.62 423.386L1082.45 427.088C1078.93 428.08 1076.65 423.438 1079.6 421.261L1091.12 412.766C1092.88 411.462 1092.91 408.829 1091.16 407.495L1079.8 398.797C1076.89 396.569 1079.24 391.967 1082.75 393.021L1095.86 396.956C1098.02 397.606 1100.18 395.934 1100.1 393.676L1099.58 379.766C1099.44 376.064 1104.57 374.985 1105.94 378.428L1110.95 391.043C1111.79 393.177 1114.51 393.814 1116.22 392.279L1126.23 383.274C1128.98 380.809 1133.08 384.019 1131.35 387.274L1124.66 399.855C1123.62 401.811 1124.76 404.216 1126.94 404.64L1140.73 407.327Z" fill="#90314F"/>
<path d="M80.728 100.463C84.3153 101.162 84.2698 106.31 80.6707 106.946L66.8338 109.389C64.6523 109.774 63.4638 112.158 64.4694 114.132L70.9376 126.83C72.6113 130.116 68.4508 133.252 65.7526 130.739L55.8968 121.558C54.2169 119.994 51.4918 120.582 50.6072 122.701L45.3781 135.226C43.9509 138.644 38.8406 137.473 39.0436 133.775L39.8065 119.877C39.9304 117.62 37.7982 115.91 35.6223 116.522L22.4535 120.224C18.9251 121.216 16.6546 116.573 19.6037 114.397L31.1173 105.901C32.8836 104.598 32.9069 101.965 31.1639 100.631L19.8025 91.9325C16.8923 89.7045 19.2447 85.1029 22.7549 86.157L35.8561 90.0914C38.0209 90.7415 40.183 89.07 40.0991 86.8113L39.5822 72.902C39.4447 69.2002 44.5749 68.1203 45.9414 71.5634L50.948 84.1788C51.795 86.3128 54.5092 86.9494 56.2166 85.4145L66.2333 76.4098C68.9756 73.9446 73.0799 77.1544 71.3483 80.41L64.6564 92.9911C63.6161 94.9469 64.7622 97.3517 66.9366 97.7755L80.728 100.463Z" fill="#90314F"/>
<path d="M623.728 578.327C627.315 579.026 627.27 584.175 623.671 584.81L609.834 587.253C607.652 587.639 606.464 590.023 607.469 591.997L613.938 604.694C615.611 607.98 611.451 611.117 608.753 608.603L598.897 599.423C597.217 597.858 594.492 598.446 593.607 600.565L588.378 613.09C586.951 616.508 581.841 615.338 582.044 611.639L582.807 597.741C582.93 595.484 580.798 593.775 578.622 594.386L565.453 598.088C561.925 599.08 559.655 594.438 562.604 592.261L574.117 583.766C575.884 582.462 575.907 579.829 574.164 578.495L562.802 569.797C559.892 567.569 562.245 562.967 565.755 564.021L578.856 567.956C581.021 568.606 583.183 566.934 583.099 564.676L582.582 550.766C582.445 547.064 587.575 545.985 588.941 549.428L593.948 562.043C594.795 564.177 597.509 564.814 599.217 563.279L609.233 554.274C611.976 551.809 616.08 555.019 614.348 558.274L607.656 570.855C606.616 572.811 607.762 575.216 609.937 575.64L623.728 578.327Z" fill="#90314F"/>
<path d="M81.1245 348.463C84.7118 349.162 84.6662 354.31 81.0672 354.946L67.2303 357.389C65.0488 357.774 63.8603 360.158 64.8659 362.132L71.3341 374.83C73.0078 378.116 68.8473 381.252 66.1491 378.739L56.2933 369.558C54.6134 367.994 51.8882 368.582 51.0037 370.701L45.7746 383.226C44.3474 386.644 39.2371 385.473 39.4401 381.775L40.203 367.877C40.3269 365.62 38.1947 363.91 36.0188 364.522L22.85 368.224C19.3216 369.216 17.0511 364.573 20.0002 362.397L31.5138 353.901C33.2801 352.598 33.3033 349.965 31.5604 348.631L20.199 339.933C17.2888 337.705 19.6412 333.103 23.1514 334.157L36.2526 338.091C38.4174 338.741 40.5795 337.07 40.4956 334.811L39.9787 320.902C39.8411 317.2 44.9713 316.12 46.3378 319.563L51.3445 332.179C52.1914 334.313 54.9057 334.949 56.6131 333.415L66.6298 324.41C69.3721 321.945 73.4764 325.154 71.7448 328.41L65.0529 340.991C64.0126 342.947 65.1587 345.352 67.3331 345.775L81.1245 348.463Z" fill="#90314F"/>
<path d="M220.578 234.845C223.835 236.485 223.794 241.149 220.508 242.732L206.923 249.273C205.091 250.156 204.103 252.179 204.534 254.166L207.816 269.292C208.606 272.933 204.791 275.845 201.487 274.121L188.705 267.456C186.814 266.47 184.488 266.983 183.188 268.673L174.265 280.275C171.967 283.263 167.222 282.163 166.472 278.47L163.467 263.664C163.051 261.618 161.254 260.146 159.166 260.142L144.555 260.119C140.883 260.113 138.837 255.875 141.115 252.995L150.711 240.867C151.958 239.292 151.978 237.071 150.759 235.473L141.379 223.178C139.152 220.259 141.273 216.057 144.944 216.116L159.553 216.351C161.641 216.385 163.464 214.945 163.916 212.906L167.183 198.156C167.998 194.476 172.762 193.461 175.006 196.489L183.723 208.247C184.993 209.96 187.31 210.514 189.218 209.562L202.115 203.123C205.449 201.459 209.212 204.437 208.358 208.064L204.809 223.129C204.342 225.108 205.294 227.149 207.11 228.064L220.578 234.845Z" fill="#DD714F"/>
<path d="M1099.18 551.709C1102.44 553.349 1102.4 558.014 1099.11 559.596L1085.53 566.138C1083.69 567.02 1082.71 569.043 1083.14 571.03L1086.42 586.156C1087.21 589.797 1083.39 592.709 1080.09 590.986L1067.31 584.32C1065.42 583.334 1063.09 583.847 1061.79 585.538L1052.87 597.14C1050.57 600.127 1045.83 599.027 1045.08 595.334L1042.07 580.528C1041.65 578.482 1039.86 577.01 1037.77 577.007L1023.16 576.983C1019.49 576.977 1017.44 572.739 1019.72 569.859L1029.31 557.732C1030.56 556.156 1030.58 553.935 1029.36 552.338L1019.98 540.042C1017.76 537.123 1019.88 532.921 1023.55 532.98L1038.16 533.215C1040.24 533.249 1042.07 531.809 1042.52 529.771L1045.79 515.02C1046.6 511.341 1051.37 510.325 1053.61 513.353L1062.33 525.111C1063.6 526.824 1065.91 527.378 1067.82 526.426L1080.72 519.987C1084.05 518.323 1087.82 521.301 1086.96 524.928L1083.41 539.993C1082.95 541.973 1083.9 544.013 1085.71 544.928L1099.18 551.709Z" fill="#DD714F"/>
<path d="M1295.18 262.709C1298.44 264.349 1298.4 269.014 1295.11 270.596L1281.53 277.138C1279.69 278.02 1278.71 280.043 1279.14 282.03L1282.42 297.156C1283.21 300.797 1279.39 303.709 1276.09 301.986L1263.31 295.32C1261.42 294.334 1259.09 294.847 1257.79 296.538L1248.87 308.14C1246.57 311.127 1241.83 310.027 1241.08 306.334L1238.07 291.528C1237.65 289.482 1235.86 288.01 1233.77 288.007L1219.16 287.983C1215.49 287.977 1213.44 283.739 1215.72 280.859L1225.31 268.732C1226.56 267.156 1226.58 264.935 1225.36 263.338L1215.98 251.042C1213.76 248.123 1215.88 243.921 1219.55 243.98L1234.16 244.215C1236.24 244.249 1238.07 242.809 1238.52 240.771L1241.79 226.02C1242.6 222.341 1247.37 221.325 1249.61 224.353L1258.33 236.111C1259.6 237.824 1261.91 238.378 1263.82 237.426L1276.72 230.987C1280.05 229.323 1283.82 232.301 1282.96 235.928L1279.41 250.993C1278.95 252.973 1279.9 255.013 1281.71 255.928L1295.18 262.709Z" fill="#DD714F"/>
<path d="M204.843 42.6582C202.644 66.2514 204.784 114.831 230.933 120.401C257.083 125.972 280.224 108.813 288.525 99.5374C295.8 92.5039 303.313 76.9256 275.165 70.8803C247.018 64.8351 249.979 91.2443 254.978 105.205C260.353 115.299 275.693 139.895 294.051 157.523C312.409 175.151 329.442 161.625 335.665 152.659" stroke="#5F6CB0" stroke-width="13.9583"/>
<path d="M1069.91 125.124C1068.42 141.151 1069.87 174.152 1087.64 177.937C1105.4 181.721 1121.12 170.065 1126.76 163.763C1131.7 158.985 1136.81 148.402 1117.69 144.296C1098.57 140.189 1100.58 158.129 1103.97 167.613C1107.62 174.471 1118.04 191.179 1130.52 203.154C1142.99 215.129 1154.56 205.941 1158.79 199.85" stroke="#5F6CB0" stroke-width="9.48227"/>
<path d="M1139.52 256.224C1134.18 268.731 1129.53 279.344 1115.44 285.67C1104.64 290.516 1091.98 293.664 1079.65 294.803C1070 295.694 1061.29 292.635 1052.02 289.468C1043.56 286.577 1034.42 283.771 1026.87 278.843C1020.68 274.8 1017.59 270.251 1013.24 264.965" stroke="#EE512F" stroke-width="13.7373" stroke-linecap="square"/>
<path d="M462.831 511.093C450.998 517.793 440.858 523.4 425.818 519.871C414.298 517.167 402.33 511.984 391.84 505.402C383.63 500.251 378.564 492.531 373.12 484.385C368.153 476.952 362.592 469.172 359.589 460.676C357.125 453.704 357.429 448.211 357.183 441.371" stroke="#EE512F" stroke-width="13.7373" stroke-linecap="square"/>
<path d="M963.185 343.663L970.866 365.293L953.684 380.01L935.385 367.475L941.257 345.011L963.185 343.663Z" fill="#E2585D"/>
<path d="M1287.19 402.663L1294.87 424.293L1277.68 439.01L1259.39 426.475L1265.26 404.011L1287.19 402.663Z" fill="#E2585D"/>
<path d="M798.703 10.6629L806.383 32.2931L789.202 47.0095L770.903 34.4745L776.775 12.0111L798.703 10.6629Z" fill="#E2585D"/>
<path d="M386.185 365.663L393.866 387.293L376.684 402.01L358.385 389.475L364.257 367.011L386.185 365.663Z" fill="#E2585D"/>
<path d="M212.566 334.663L220.246 356.293L203.065 371.01L184.766 358.475L190.638 336.011L212.566 334.663Z" fill="#53405E"/>
<path d="M710.185 130.663L717.866 152.293L700.684 167.01L682.385 154.475L688.257 132.011L710.185 130.663Z" fill="#53405E"/>
<path d="M758.185 553.663L765.866 575.293L748.684 590.01L730.385 577.475L736.257 555.011L758.185 553.663Z" fill="#53405E"/>
<path d="M1145.19 61.6629L1152.87 83.2931L1135.68 98.0095L1117.39 85.4745L1123.26 63.0111L1145.19 61.6629Z" fill="#53405E"/>
<path d="M36.5661 221.663L44.2464 243.293L27.0651 258.01L8.76608 245.475L14.638 223.011L36.5661 221.663Z" fill="#53405E"/>
<path d="M440.934 23.0091L451.745 53.4558L427.561 74.1706L401.803 56.5263L410.068 24.9068L440.934 23.0091Z" fill="#E2585D"/>
</svg>
