<svg width="1406" height="592" viewBox="0 0 1406 592" fill="none" xmlns="http://www.w3.org/2000/svg">
<path d="M625.923 452.843C611.739 459.795 601.08 467.402 593.514 481.685C584.648 498.42 579.616 523.95 586.172 542.256C591.672 557.614 609.117 565.181 624.838 563.242C639.698 561.409 641.286 543.594 639.631 531.929C637.726 518.51 633.637 498.962 618.113 495.788C595.903 491.248 567.108 496.898 546.464 505.187C526.484 513.21 512.171 528.559 511.99 551.384C511.896 563.343 519.48 575.467 524.339 586.077" stroke="#90314F" stroke-width="19.0679" stroke-linecap="square"/>
<path d="M57.7808 331.274C53.3486 326.183 56.8923 318.235 63.6414 318.129L115.948 317.309C119.724 317.25 122.934 314.539 123.625 310.827L133.08 260.044C134.304 253.468 142.615 251.264 146.937 256.368L181.08 296.69C183.469 299.511 187.49 300.309 190.776 298.613L237.4 274.544C243.312 271.492 250.13 276.634 248.82 283.157L238.593 334.085C237.858 337.744 239.772 341.421 243.191 342.917L291.528 364.074C297.694 366.773 297.911 375.44 291.887 378.444L245.513 401.571C242.117 403.265 240.395 407.126 241.405 410.785L255.198 460.737C256.99 467.225 250.397 472.857 244.268 470.074L196.225 448.26C192.827 446.717 188.813 447.75 186.582 450.743L155.536 492.389C151.559 497.724 143.177 496.089 141.496 489.651L128.237 438.884C127.303 435.307 124.022 432.848 120.326 432.957L67.5139 434.511C60.8283 434.707 56.9133 427.052 60.9861 421.747L92.4412 380.772C94.7402 377.777 94.6108 373.577 92.1316 370.729L57.7808 331.274Z" fill="#53405E"/>
<path d="M1254.11 238.764C1249.33 235.473 1252.66 228.005 1258.31 229.361L1280 234.573C1283.42 235.395 1286.67 232.677 1286.45 229.165L1285.08 206.575C1284.73 200.73 1292.77 198.799 1295.11 204.17L1303.64 223.785C1305.1 227.128 1309.44 227.999 1312.07 225.474L1327.62 210.55C1331.87 206.477 1338.57 211.421 1335.93 216.678L1326.01 236.433C1324.4 239.64 1326.42 243.481 1329.97 243.97L1351.5 246.926C1357.26 247.718 1357.63 255.917 1351.95 257.217L1329.8 262.291C1326.4 263.069 1324.7 266.888 1326.39 269.936L1337.42 289.803C1340.25 294.892 1333.91 300.102 1329.46 296.342L1312.88 282.309C1310.14 279.99 1305.93 281.054 1304.62 284.396L1296.56 304.978C1294.41 310.456 1286.26 308.777 1286.45 302.897L1287.16 281.353C1287.28 277.709 1283.73 275.061 1280.27 276.214L1259.97 282.978C1254.42 284.829 1250.48 277.554 1255.06 273.911L1272.78 259.832C1275.54 257.643 1275.39 253.415 1272.49 251.42L1254.11 238.764Z" fill="#90314F"/>
<path d="M1239.96 444.673C1236.25 440.22 1239.27 433.454 1245.06 433.233L1268.99 432.318C1272.21 432.194 1274.93 429.874 1275.57 426.707L1280.37 402.601C1281.53 396.798 1288.93 394.976 1292.65 399.58L1307.04 417.388C1309.17 420.022 1312.88 420.749 1315.84 419.112L1336.19 407.873C1341.43 404.979 1347.64 409.588 1346.39 415.442L1341.39 438.907C1340.69 442.15 1342.38 445.432 1345.42 446.761L1366.68 456.056C1372.02 458.392 1372.32 465.861 1367.17 468.609L1345.51 480.187C1342.7 481.691 1341.26 484.913 1342.02 488.011L1347.89 511.861C1349.28 517.524 1343.53 522.297 1338.22 519.884L1317.1 510.283C1314.08 508.911 1310.51 509.851 1308.56 512.534L1294.45 531.942C1290.93 536.784 1283.35 535.242 1282 529.411L1276.76 506.765C1276 503.465 1272.98 501.189 1269.6 501.367L1246.73 502.567C1240.82 502.878 1237.23 496.156 1240.78 491.416L1255.49 471.728C1257.43 469.142 1257.33 465.567 1255.27 463.084L1239.96 444.673Z" fill="#DD714F"/>
<path d="M1014.95 608.553C1050.26 595.526 1118.38 559.151 1108.43 517.872C1098.48 476.593 1058.03 455.21 1039.05 449.678C1023.99 444.08 996.522 444 1007.16 488.466C1017.8 532.932 1053.6 510.582 1070.17 493.848C1080.95 479.227 1105.66 440.387 1118.33 402.003C1130.99 363.618 1099.94 348.492 1082.83 345.727" stroke="#5F6CB0" stroke-width="22.1678"/>
<path d="M-17.9997 133.812C-2.30454 118.98 11.1881 106.465 34.8192 105.232C52.9207 104.288 72.4521 106.78 90.1937 111.946C104.079 115.99 114.035 125.128 124.688 134.728C134.409 143.488 145.125 152.504 152.225 163.654C158.051 172.804 159.274 180.968 161.734 190.869" stroke="#EE512F" stroke-width="21.8168" stroke-linecap="square"/>
<path d="M135.908 60.7482L138.434 24.3827L172.781 13.8433L191.482 43.695L168.694 72.6838L135.908 60.7482Z" fill="#E2585D"/>
<path d="M272.219 546.005L274.745 509.64L309.092 499.1L327.793 528.952L305.004 557.941L272.219 546.005Z" fill="#E2585D"/>
<path d="M1310.91 68.7482L1313.43 32.3827L1347.78 21.8433L1366.48 51.695L1343.69 80.6838L1310.91 68.7482Z" fill="#53405E"/>
<path d="M764.467 503.112L768.023 451.924L816.369 437.088L842.693 479.108L810.616 519.912L764.467 503.112Z" fill="#E2585D"/>
</svg>
