<svg width="414" height="240" viewBox="0 0 414 240" fill="none" xmlns="http://www.w3.org/2000/svg">
<path d="M7.73397 159.807C6.13481 157.971 7.41338 155.103 9.84848 155.065L28.7211 154.769C30.0832 154.747 31.2416 153.769 31.4909 152.43L34.9023 134.107C35.344 131.735 38.3425 130.939 39.902 132.781L52.2207 147.329C53.0827 148.347 54.5336 148.635 55.719 148.023L72.5413 139.339C74.6745 138.238 77.1343 140.093 76.6617 142.447L72.9716 160.822C72.7064 162.142 73.3971 163.468 74.6306 164.008L92.0708 171.642C94.2956 172.615 94.3739 175.743 92.2005 176.827L75.4685 185.171C74.2431 185.782 73.6219 187.175 73.9864 188.495L78.9629 206.518C79.6093 208.859 77.2308 210.891 75.0194 209.887L57.6851 202.016C56.459 201.46 55.0107 201.833 54.2059 202.912L43.0044 217.938C41.5695 219.863 38.5454 219.273 37.9388 216.951L33.1548 198.633C32.8177 197.343 31.6339 196.456 30.3005 196.495L11.2457 197.056C8.83353 197.127 7.42096 194.365 8.89045 192.45L20.2396 177.666C21.0691 176.586 21.0224 175.07 20.1279 174.043L7.73397 159.807Z" fill="#53405E"/>
<path d="M7.99992 98.5885C13.1556 93.7166 17.5878 89.6055 25.3503 89.2005C31.2965 88.8903 37.7123 89.709 43.5403 91.4061C48.1015 92.7343 51.3718 95.736 54.8714 98.8897C58.0645 101.767 61.5845 104.729 63.9169 108.392C65.8307 111.397 66.2325 114.079 67.0404 117.331" stroke="#EE512F" stroke-width="7.16659" stroke-linecap="square"/>
<path d="M13.8561 52.3617L14.7859 38.9756L27.429 35.096L34.3129 46.0844L25.9244 56.7552L13.8561 52.3617Z" fill="#E2585D"/>
<path d="M124.856 213.362L125.786 199.976L138.429 196.096L145.313 207.084L136.924 217.755L124.856 213.362Z" fill="#E2585D"/>
<path d="M227.587 163C222.365 165.56 218.442 168.36 215.657 173.617C212.393 179.777 210.541 189.175 212.954 195.913C214.979 201.567 221.4 204.352 227.187 203.638C232.657 202.963 233.242 196.406 232.632 192.112C231.931 187.172 230.426 179.977 224.712 178.809C216.536 177.137 205.937 179.217 198.338 182.268C190.983 185.221 185.715 190.871 185.648 199.273C185.613 203.675 188.405 208.138 190.193 212.044" stroke="#90314F" stroke-width="7.01888" stroke-linecap="square"/>
<path d="M265.243 220.476L266.552 201.633L284.348 196.172L294.038 211.64L282.23 226.66L265.243 220.476Z" fill="#E2585D"/>
<path d="M337.081 215.853C350.077 211.058 375.153 197.668 371.49 182.474C367.827 167.279 352.939 159.408 345.952 157.372C340.407 155.311 330.297 155.281 334.213 171.649C338.13 188.017 351.308 179.79 357.408 173.631C361.374 168.248 370.472 153.952 375.133 139.822C379.795 125.693 368.363 120.125 362.065 119.107" stroke="#5F6CB0" stroke-width="8.15993"/>
<path d="M353.444 70.1681C352.081 68.529 353.191 66.0383 355.322 65.9568L364.13 65.62C365.318 65.5745 366.319 64.7204 366.552 63.5547L368.322 54.6815C368.748 52.5452 371.472 51.8747 372.841 53.5691L378.137 60.1243C378.92 61.0941 380.287 61.3616 381.378 60.7588L388.868 56.622C390.797 55.5568 393.084 57.2533 392.624 59.4079L390.78 68.0454C390.526 69.2391 391.146 70.4474 392.264 70.9364L400.09 74.3579C402.057 75.2178 402.165 77.9671 400.272 78.979L392.299 83.2407C391.263 83.7944 390.734 84.9801 391.015 86.1208L393.174 94.9C393.687 96.9844 391.569 98.7414 389.615 97.8532L381.839 94.3188C380.728 93.8137 379.415 94.16 378.697 95.1474L373.504 102.292C372.209 104.074 369.419 103.506 368.922 101.36L366.993 93.0239C366.712 91.8092 365.6 90.9715 364.355 91.0369L355.939 91.4789C353.764 91.5931 352.442 89.1187 353.746 87.3739L359.163 80.1269C359.875 79.1748 359.841 77.8589 359.081 76.945L353.444 70.1681Z" fill="#DD714F"/>
<path d="M103.761 156.735C102.722 155.487 103.568 153.59 105.19 153.528L111.898 153.272C112.802 153.237 113.565 152.587 113.742 151.699L115.09 144.942C115.414 143.315 117.488 142.805 118.531 144.095L122.564 149.087C123.16 149.825 124.201 150.029 125.032 149.57L130.736 146.42C132.204 145.609 133.946 146.901 133.596 148.541L132.192 155.119C131.998 156.028 132.47 156.948 133.322 157.32L139.281 159.926C140.779 160.58 140.861 162.674 139.42 163.445L133.348 166.69C132.559 167.111 132.157 168.014 132.37 168.883L134.014 175.568C134.405 177.155 132.792 178.493 131.304 177.817L125.383 175.126C124.537 174.741 123.537 175.005 122.991 175.757L119.036 181.197C118.05 182.554 115.925 182.122 115.547 180.488L114.078 174.14C113.864 173.215 113.017 172.577 112.069 172.627L105.66 172.963C104.004 173.05 102.997 171.166 103.99 169.837L108.116 164.319C108.658 163.594 108.632 162.592 108.053 161.896L103.761 156.735Z" fill="#DD714F"/>
<path d="M283.655 150.042C281.896 148.83 283.121 146.082 285.199 146.581L293.185 148.499C294.445 148.802 295.638 147.801 295.56 146.509L295.055 138.193C294.924 136.042 297.886 135.331 298.746 137.308L301.887 144.528C302.423 145.759 304.021 146.079 304.989 145.15L310.714 139.657C312.277 138.157 314.743 139.977 313.771 141.912L310.119 149.184C309.527 150.365 310.271 151.778 311.58 151.958L319.502 153.046C321.625 153.338 321.759 156.356 319.67 156.834L311.516 158.702C310.266 158.989 309.639 160.394 310.262 161.516L314.322 168.83C315.362 170.703 313.028 172.62 311.392 171.236L305.288 166.071C304.279 165.217 302.73 165.609 302.248 166.839L299.28 174.415C298.49 176.432 295.488 175.814 295.559 173.649L295.819 165.719C295.863 164.377 294.556 163.403 293.283 163.827L285.813 166.317C283.768 166.998 282.317 164.32 284.004 162.979L290.527 157.797C291.541 156.991 291.487 155.435 290.421 154.701L283.655 150.042Z" fill="#90314F"/>
<path d="M375.856 22.3617L376.786 8.97561L389.429 5.09604L396.313 16.0844L387.924 26.7552L375.856 22.3617Z" fill="#53405E"/>
</svg>
