<svg width="1385" height="95" viewBox="0 0 1385 95" fill="none" xmlns="http://www.w3.org/2000/svg">
<path d="M475.306 75.8008C481.182 75.0754 485.89 73.6862 490.32 69.5533C495.51 64.7108 500.42 56.2836 500.34 48.9953C500.272 42.8812 495.02 38.0637 489.213 36.8251C483.724 35.6542 480.979 41.7708 480.137 46.1059C479.168 51.0927 478.222 58.5183 483.333 61.5441C490.645 65.8731 501.537 67.3987 509.866 66.9908C517.926 66.596 524.877 62.9117 527.737 54.8481C529.235 50.6233 528.033 45.3992 527.612 41.0456" stroke="#90314F" stroke-width="7.14717" stroke-linecap="square"/>
<path d="M1164.74 75.8008C1170.62 75.0754 1175.33 73.6862 1179.76 69.5533C1184.95 64.7108 1189.86 56.2836 1189.78 48.9953C1189.71 42.8812 1184.46 38.0637 1178.65 36.8251C1173.16 35.6542 1170.42 41.7708 1169.57 46.1059C1168.6 51.0927 1167.66 58.5183 1172.77 61.5441C1180.08 65.8731 1190.97 67.3987 1199.3 66.9908C1207.36 66.596 1214.31 62.9117 1217.17 54.8481C1218.67 50.6233 1217.47 45.3992 1217.05 41.0456" stroke="#90314F" stroke-width="7.14717" stroke-linecap="square"/>
<path d="M629.488 57.7223C631.351 58.7278 631.311 61.4152 629.418 62.3645L619.815 67.1808C618.763 67.7087 618.192 68.8746 618.422 70.0296L620.648 81.2412C621.083 83.4302 618.754 85.1238 616.805 84.0354L608.238 79.2499C607.088 78.6071 605.638 78.9205 604.856 79.9813L598.806 88.185C597.447 90.0276 594.544 89.3599 594.127 87.1088L592.139 76.3831C591.91 75.15 590.839 74.2524 589.585 74.2433L579.533 74.1701C577.379 74.1544 576.166 71.688 577.468 69.9718L584.334 60.9203C585.026 60.0083 585.045 58.7524 584.38 57.8201L577.787 48.5677C576.537 46.8133 577.824 44.3843 579.977 44.4329L590.026 44.6598C591.28 44.6881 592.378 43.8229 592.643 42.5972L594.951 31.9356C595.435 29.6979 598.356 29.1172 599.66 30.9995L605.462 39.3802C606.213 40.4639 607.652 40.8204 608.821 40.2122L617.527 35.6846C619.507 34.6548 621.785 36.4172 621.285 38.5923L618.725 49.7324C618.461 50.88 618.996 52.0625 620.032 52.6215L629.488 57.7223Z" fill="#53405E"/>
<path d="M1318.93 57.7223C1320.79 58.7278 1320.75 61.4152 1318.86 62.3645L1309.25 67.1808C1308.2 67.7087 1307.63 68.8746 1307.86 70.0296L1310.09 81.2412C1310.52 83.4302 1308.19 85.1238 1306.24 84.0354L1297.68 79.2499C1296.53 78.6071 1295.08 78.9205 1294.29 79.9813L1288.24 88.185C1286.88 90.0276 1283.98 89.3599 1283.56 87.1088L1281.58 76.3831C1281.35 75.15 1280.28 74.2524 1279.02 74.2433L1268.97 74.1701C1266.82 74.1544 1265.6 71.688 1266.91 69.9718L1273.77 60.9203C1274.46 60.0083 1274.48 58.7524 1273.82 57.8201L1267.22 48.5677C1265.97 46.8133 1267.26 44.3843 1269.41 44.4329L1279.46 44.6598C1280.72 44.6881 1281.82 43.8229 1282.08 42.5972L1284.39 31.9356C1284.87 29.6979 1287.79 29.1172 1289.1 30.9995L1294.9 39.3802C1295.65 40.4639 1297.09 40.8204 1298.26 40.2122L1306.96 35.6846C1308.94 34.6548 1311.22 36.4172 1310.72 38.5923L1308.16 49.7324C1307.9 50.88 1308.43 52.0625 1309.47 52.6215L1318.93 57.7223Z" fill="#53405E"/>
<path d="M58.5598 52.1589C60.4235 53.1643 60.3834 55.8517 58.4905 56.801L48.8874 61.6173C47.8348 62.1452 47.2645 63.3111 47.4938 64.4661L49.7202 75.6777C50.1549 77.8668 47.8258 79.5604 45.8774 78.472L37.3105 73.6864C36.1598 73.0437 34.7107 73.357 33.9283 74.4178L27.8782 82.6215C26.5193 84.4641 23.6165 83.7965 23.1992 81.5453L21.2109 70.8196C20.9823 69.5865 19.9111 68.689 18.657 68.6798L8.6055 68.6066C6.45135 68.5909 5.23781 66.1245 6.53977 64.4083L13.4063 55.3568C14.0982 54.4448 14.1169 53.1889 13.4526 52.2566L6.85931 43.0042C5.60916 41.2499 6.89579 38.8208 9.04945 38.8694L19.0987 39.0963C20.3524 39.1246 21.45 38.2594 21.7153 37.0337L24.0229 26.3721C24.5072 24.1344 27.4286 23.5537 28.7319 25.4361L34.5345 33.8167C35.2848 34.9004 36.724 35.2569 37.8933 34.6487L46.5992 30.1211C48.5792 29.0913 50.8568 30.8537 50.3569 33.0288L47.7968 44.1689C47.5331 45.3166 48.0684 46.499 49.1047 47.0581L58.5598 52.1589Z" fill="#53405E"/>
<path d="M774.485 56.2272C776.418 57.2153 776.377 59.9918 774.415 60.9218L766.305 64.7667C765.211 65.2852 764.616 66.4862 764.865 67.6706L766.764 76.6861C767.221 78.8567 764.94 80.576 762.979 79.5383L755.395 75.5241C754.273 74.9302 752.886 75.2274 752.106 76.229L746.753 83.103C745.374 84.8729 742.553 84.2012 742.12 82L740.385 73.1756C740.145 71.956 739.08 71.0734 737.837 71.0639L729.14 70.9969C726.955 70.9801 725.752 68.4498 727.118 66.744L732.874 59.5595C733.622 58.626 733.642 57.3042 732.922 56.3488L727.383 48.9957C726.068 47.2498 727.346 44.7565 729.531 44.805L738.227 44.9977C739.469 45.0252 740.56 44.1748 740.836 42.9629L742.834 34.1943C743.333 32.007 746.172 31.4198 747.497 33.2301L752.643 40.2608C753.393 41.2852 754.77 41.6236 755.909 41.0635L763.61 37.2775C765.601 36.2989 767.83 38.0855 767.308 40.2414L765.141 49.1963C764.856 50.3727 765.416 51.5909 766.493 52.1418L774.485 56.2272Z" fill="#DD714F"/>
<path d="M344.594 36.0633C341.374 42.7994 338.57 48.5168 330.609 52.0641C324.511 54.7814 317.413 56.6158 310.538 57.3748C305.157 57.9688 300.378 56.4445 295.291 54.8691C290.65 53.4317 285.627 52.0473 281.536 49.5119C278.179 47.4314 276.553 45.0433 274.245 42.2773" stroke="#EE512F" stroke-width="8.17755" stroke-linecap="square"/>
<path d="M1049.62 43.3983C1046.4 50.1344 1043.59 55.8518 1035.63 59.3991C1029.53 62.1164 1022.44 63.9507 1015.56 64.7097C1010.18 65.3038 1005.4 63.7795 1000.31 62.2041C995.673 60.7666 990.651 59.3822 986.559 56.8468C983.202 54.7664 981.576 52.3783 979.268 49.6123" stroke="#EE512F" stroke-width="8.17755" stroke-linecap="square"/>
<path d="M454.353 55.3162L458.847 67.0214L448.566 74.9116L437.718 68.0829L441.295 55.9722L454.353 55.3162Z" fill="#E2585D"/>
<path d="M685.388 50.7322L689.882 62.4374L679.601 70.3277L668.754 63.4989L672.33 51.3882L685.388 50.7322Z" fill="#E2585D"/>
<path d="M1374.83 20.3553L1379.32 32.0605L1369.04 39.9507L1358.19 33.1219L1361.77 21.0113L1374.83 20.3553Z" fill="#E2585D"/>
<path d="M108.716 38.8143L113.21 50.5195L102.929 58.4097L92.0817 51.5809L95.6583 39.4703L108.716 38.8143Z" fill="#53405E"/>
<path d="M820.158 50.7322L824.651 62.4374L814.37 70.3277L803.523 63.4989L807.1 51.3882L820.158 50.7322Z" fill="#53405E"/>
<path d="M411.825 33.847L418.15 50.3233L403.679 61.4295L388.41 51.8173L393.445 34.7704L411.825 33.847Z" fill="#E2585D"/>
<path d="M1115.01 41.182L1121.34 57.6582L1106.87 68.7645L1091.6 59.1523L1096.63 42.1054L1115.01 41.182Z" fill="#E2585D"/>
<path d="M236.284 44.307C239.573 44.9479 239.531 49.6678 236.232 50.2505L223.546 52.4904C221.546 52.8435 220.456 55.0293 221.378 56.839L227.308 68.4803C228.843 71.4926 225.028 74.3683 222.555 72.0641L213.519 63.6473C211.979 62.2126 209.48 62.7521 208.669 64.6945L203.875 76.1774C202.567 79.3114 197.881 78.2383 198.068 74.8472L198.767 62.1055C198.881 60.0364 196.926 58.4691 194.931 59.0299L182.858 62.4239C179.623 63.3332 177.541 59.0769 180.245 57.0818L190.801 49.2928C192.42 48.0979 192.441 45.6839 190.843 44.4606L180.427 36.4861C177.759 34.4434 179.916 30.2246 183.134 31.191L195.145 34.7981C197.13 35.3941 199.112 33.8617 199.035 31.7909L198.561 19.0388C198.435 15.6449 203.139 14.6548 204.391 17.8115L208.982 29.3774C209.758 31.3339 212.247 31.9175 213.812 30.5103L222.995 22.2548C225.509 19.9946 229.272 22.9374 227.685 25.9221L221.55 37.4566C220.596 39.2497 221.647 41.4544 223.64 41.8429L236.284 44.307Z" fill="#90314F"/>
<path d="M925.722 44.307C929.01 44.9479 928.969 49.6678 925.669 50.2505L912.983 52.4904C910.983 52.8435 909.894 55.0293 910.816 56.839L916.746 68.4803C918.28 71.4926 914.466 74.3683 911.992 72.0641L902.956 63.6473C901.416 62.2126 898.918 62.7521 898.107 64.6945L893.313 76.1774C892.004 79.3114 887.319 78.2383 887.505 74.8472L888.205 62.1055C888.318 60.0364 886.363 58.4691 884.368 59.0299L872.295 62.4239C869.06 63.3332 866.979 59.0769 869.682 57.0818L880.238 49.2928C881.858 48.0979 881.879 45.6839 880.281 44.4606L869.865 36.4861C867.197 34.4434 869.353 30.2246 872.572 31.191L884.583 34.7981C886.567 35.3941 888.55 33.8617 888.473 31.7909L887.999 19.0388C887.873 15.6449 892.576 14.6548 893.829 17.8115L898.419 29.3774C899.196 31.3339 901.684 31.9175 903.249 30.5103L912.433 22.2548C914.947 19.9946 918.71 22.9374 917.122 25.9221L910.987 37.4566C910.033 39.2497 911.084 41.4544 913.078 41.8429L925.722 44.307Z" fill="#90314F"/>
</svg>
